#!OML:ASF F:\VICON\USERDATA\INSTALL\rory3\rory3.ASF
:FULLY-SPECIFIED
:DEGREES
515
root -0.22666 16.753 -1.17174 -153.576 5.0509 186.865
lowerback -13.4807 1.88369 1.37508
upperback -4.92308 2.88212 1.25005
thorax 2.36804 1.69438 0.97678
lowerneck -9.74846 -5.57514 2.35868
upperneck 44.5177 -1.21035 -0.638211
head 18.3123 2.1353 -0.177989
rclavicle 2.98177e-015 2.5842e-015
rhumerus -41.9256 -23.0114 -64.0771
rradius 7.38265
rwrist 18.8933
rhand -11.1685 17.0729
rfingers 7.12502
rthumb 14.8581 -12.3743
lclavicle 2.98177e-015 2.5842e-015
lhumerus -49.7998 3.87801 75.9032
lradius 21.9749
lwrist -0.501998
lhand -14.9244 18.7535
lfingers 7.12502
lthumb 11.2376 48.4325
rfemur -11.363 -0.983006 15.2712
rtibia 38.7257
rfoot -9.13339 -40.7546
rtoes 47.909
lfemur -40.2249 -1.26429 -24.4423
ltibia 38.4164
lfoot -47.2931 24.7673
ltoes 13.5294
516
root -0.210036 16.7575 -1.15037 -153.614 5.22089 186.597
lowerback -13.6029 1.82413 0.989536
upperback -5.02237 2.8659 1.0862
thorax 2.32184 1.69164 1.02276
lowerneck -9.23943 -5.57742 2.36101
upperneck 44.382 -1.18457 -0.583052
head 18.0903 2.1638 -0.146677
rclavicle 2.4699e-014 1.98785e-015
rhumerus -42.0847 -22.574 -64.5507
rradius 7.39366
rwrist 18.8908
rhand -11.1799 17.0534
rfingers 7.12502
rthumb 14.8472 -12.3946
lclavicle 2.4699e-014 1.98785e-015
lhumerus -50.1847 3.1577 76.5654
lradius 21.5843
lwrist -0.862056
lhand -14.9883 18.1462
lfingers 7.12502
lthumb 11.176 47.8285
rfemur -11.1533 -0.975257 15.5647
rtibia 38.9246
rfoot -5.14932 -41.1864
rtoes 46.9388
lfemur -40.3132 -1.23022 -24.7
ltibia 38.4651
lfoot -47.2182 24.883
ltoes 13.6763
517
root -0.197121 16.758 -1.13506 -153.616 5.22556 186.482
lowerback -13.6983 1.69287 0.733211
upperback -5.05949 2.73012 1.07005
thorax 2.32568 1.6283 1.13231
lowerneck -9.05244 -5.52628 2.43328
upperneck 44.2362 -1.12351 -0.674761
head 17.9478 2.17567 -0.19881
rclavicle 1.94312e-014 7.95139e-015
rhumerus -42.016 -21.9916 -65.0452
rradius 7.30852
rwrist 19.0937
rhand -11.2663 16.9078
rfingers 7.12502
rthumb 14.7639 -12.5464
lclavicle 1.94312e-014 7.95139e-015
lhumerus -50.5264 2.53001 77.4276
lradius 21.3942
lwrist -1.06857
lhand -14.696 18.1607
lfingers 7.12502
lthumb 11.458 47.8276
rfemur -10.9661 -1.31208 16.0261
rtibia 39.1571
rfoot -0.166606 -41.2736
rtoes 45.8719
lfemur -40.4189 -1.05893 -24.8223
ltibia 38.5396
lfoot -47.2096 24.3565
ltoes 14.3799
518
root -0.186296 16.7579 -1.11717 -153.585 5.23901 186.495
lowerback -13.7004 1.61069 0.641755
upperback -5.13955 2.64469 1.05159
thorax 2.2412 1.59108 1.14915
lowerneck -8.95023 -5.48825 2.43694
upperneck 44.199 -1.11311 -0.572468
head 17.8998 2.19284 -0.150663
rclavicle -1.41137e-014 -5.1684e-015
rhumerus -41.9326 -21.4584 -65.5468
rradius 7.1066
rwrist 19.1885
rhand -11.2667 17.3455
rfingers 7.12502
rthumb 14.7635 -12.1087
lclavicle -1.41137e-014 -5.1684e-015
lhumerus -50.9148 1.98206 78.1515
lradius 21.3169
lwrist -1.45042
lhand -13.8497 18.7601
lfingers 7.12502
lthumb 12.2741 48.3799
rfemur -10.8497 -1.69599 16.5901
rtibia 39.4534
rfoot 2.8092 -41.0789
rtoes 46.2623
lfemur -40.553 -0.936291 -24.81
ltibia 38.6723
lfoot -47.3601 23.8197
ltoes 15.269
519
root -0.174542 16.7609 -1.09286 -153.167 5.58139 186.64
lowerback -13.858 1.72286 0.607762
upperback -5.44365 2.84918 0.926933
thorax 2.00903 1.71329 1.06782
lowerneck -8.80466 -5.60356 2.43516
upperneck 44.4064 -1.25632 -0.364192
head 17.9889 2.20211 -0.0611435
rclavicle 1.44119e-015 1.98785e-015
rhumerus -42.2229 -21.1031 -65.8974
rradius 7.17712
rwrist 18.9079
rhand -10.8231 17.6735
rfingers 7.12502
rthumb 15.1909 -11.7489
lclavicle 1.44119e-015 1.98785e-015
lhumerus -51.4265 1.14182 78.8842
lradius 21.1997
lwrist -1.93714
lhand -13.5231 18.6787
lfingers 7.12502
lthumb 12.5889 48.2794
rfemur -11.2765 -1.85186 17.1253
rtibia 39.7107
rfoot 3.09733 -40.502
rtoes 47.3356
lfemur -41.1408 -0.9546 -24.6421
ltibia 38.8275
lfoot -47.635 23.8704
ltoes 15.5341
520
root -0.158901 16.7702 -1.0612 -152.105 6.50719 187.021
lowerback -14.4323 1.96865 0.454992
upperback -5.89905 3.27962 0.840866
thorax 1.82928 1.96685 1.14381
lowerneck -8.86058 -5.68652 2.55734
upperneck 44.6993 -1.31391 -0.337873
head 18.1829 2.24199 -0.0638426
rclavicle -1.47101e-014 -1.27222e-014
rhumerus -42.4014 -20.6849 -66.3176
rradius 7.23611
rwrist 18.8651
rhand -10.4362 17.7426
rfingers 7.12502
rthumb 15.5635 -11.6512
lclavicle -1.47101e-014 -1.27222e-014
lhumerus -51.7765 0.382702 79.6518
lradius 20.8696
lwrist -2.32452
lhand -13.3531 18.2978
lfingers 7.12502
lthumb 12.7528 47.8884
rfemur -12.6773 -1.55784 17.6478
rtibia 40.0615
rfoot 2.46962 -39.7315
rtoes 48.4887
lfemur -42.5203 -0.929771 -24.291
ltibia 39.038
lfoot -48.2128 24.582
ltoes 15.8225
521
root -0.137297 16.7616 -1.05239 -152.796 6.05135 186.644
lowerback -13.9051 1.68724 0.0153174
upperback -5.74448 2.9237 0.797202
thorax 1.69839 1.77521 1.26941
lowerneck -8.92675 -5.68672 2.66672
upperneck 44.7298 -1.35275 -0.363608
head 18.2158 2.23949 -0.102631
rclavicle 7.95139e-016 -1.78906e-014
rhumerus -42.4732 -20.1564 -66.7623
rradius 7.34033
rwrist 19.0537
rhand -10.0394 17.7288
rfingers 7.12502
rthumb 15.9457 -11.6348
lclavicle 7.95139e-016 -1.78906e-014
lhumerus -52.087 -0.165497 80.4041
lradius 20.7095
lwrist -2.75366
lhand -12.9085 18.2264
lfingers 7.12502
lthumb 13.1814 47.7898
rfemur -11.7414 -2.1817 18.1941
rtibia 40.246
rfoot 4.79618 -38.8737
rtoes 47.0807
lfemur -42.0236 -0.768286 -24.6083
ltibia 39.2065
lfoot -47.165 25.2535
ltoes 13.6463
522
root -0.123049 16.7695 -1.03405 -151.958 6.51674 187.148
lowerback -14.547 1.78021 0.126119
upperback -6.00396 3.09169 0.837964
thorax 1.76758 1.88584 1.29828
lowerneck -8.87345 -5.62515 2.85511
upperneck 44.5547 -1.34356 -0.486769
head 18.0845 2.23377 -0.20408
rclavicle 2.0773e-014 5.1684e-015
rhumerus -42.4421 -19.5999 -67.2839
rradius 7.41588
rwrist 19.2144
rhand -9.43618 17.2893
rfingers 7.12502
rthumb 16.5265 -12.0269
lclavicle 2.0773e-014 5.1684e-015
lhumerus -52.5358 -0.931125 81.3875
lradius 20.8307
lwrist -2.44822
lhand -12.6127 18.2084
lfingers 7.12502
lthumb 13.4665 47.7531
rfemur -12.7966 -2.33525 19.0786
rtibia 40.4638
rfoot 12.9165 -36.6677
rtoes 40.8278
lfemur -43.1557 -0.299063 -24.2123
ltibia 39.4056
lfoot -46.9627 25.7801
ltoes 12.7609
523
root -0.106542 16.7463 -1.03787 -153.002 5.62494 186.473
lowerback -14.0023 1.33561 -0.311246
upperback -5.67905 2.49189 0.720381
thorax 1.81897 1.55814 1.31455
lowerneck -8.91515 -5.57 3.02823
upperneck 44.4722 -1.333 -0.572487
head 18.0388 2.23887 -0.280632
rclavicle 2.3059e-014 1.11319e-014
rhumerus -42.3529 -19.1028 -67.8456
rradius 7.50352
rwrist 19.4532
rhand -8.85822 16.6311
rfingers 7.12502
rthumb 17.0829 -12.6378
lclavicle 2.3059e-014 1.11319e-014
lhumerus -52.899 -1.77173 82.368
lradius 20.9588
lwrist -2.12394
lhand -12.3732 18.105
lfingers 7.12502
lthumb 13.6973 47.6342
rfemur -11.2519 -3.72291 19.4314
rtibia 40.5169
rfoot 15.6684 -34.5095
rtoes 37.8881
lfemur -42.1875 -0.119939 -24.8447
ltibia 39.5793
lfoot -45.7616 25.6757
ltoes 10.4628
524
root -0.0931043 16.7281 -1.02441 -153.357 5.37036 185.903
lowerback -13.8065 1.01133 -0.96898
upperback -5.64599 2.13479 0.632942
thorax 1.73917 1.38167 1.53356
lowerneck -8.71786 -5.53667 2.93472
upperneck 44.3504 -1.33075 -0.471794
head 17.9151 2.22557 -0.221062
rclavicle 8.15017e-015 1.27222e-014
rhumerus -42.4977 -18.3526 -68.236
rradius 7.85786
rwrist 19.5667
rhand -8.10292 16.3495
rfingers 7.12502
rthumb 17.8098 -12.8549
lclavicle 8.15017e-015 1.27222e-014
lhumerus -53.2707 -2.20769 83.1332
lradius 20.8317
lwrist -2.42803
lhand -11.9895 17.6762
lfingers 7.12502
lthumb 14.0671 47.1801
rfemur -10.7219 -4.74332 19.5283
rtibia 40.6978
rfoot 16.9552 -32.325
rtoes 36.3073
lfemur -42.0519 0.243839 -25.5999
ltibia 39.7962
lfoot -44.6039 26.2931
ltoes 7.96746
525
root -0.0766048 16.7189 -0.986507 -153.511 5.2055 185.758
lowerback -13.3414 0.76247 -1.35177
upperback -5.62627 1.82801 0.678502
thorax 1.50772 1.22802 1.73678
lowerneck -8.97148 -5.42787 2.84846
upperneck 44.3417 -1.26945 -0.380696
head 17.9842 2.22321 -0.160084
rclavicle 1.59028e-015 9.54166e-015
rhumerus -42.4135 -17.558 -68.7256
rradius 8.37446
rwrist 19.5445
rhand -7.21917 16.0794
rfingers 7.12502
rthumb 18.66 -13.0456
lclavicle 1.59028e-015 9.54166e-015
lhumerus -53.3512 -2.43663 83.8019
lradius 20.683
lwrist -2.59326
lhand -11.4472 17.349
lfingers 7.12502
lthumb 14.5897 46.8158
rfemur -10.6409 -5.39281 20.129
rtibia 40.9394
rfoot 17.5444 -30.0693
rtoes 34.1147
lfemur -42.1746 0.335597 -25.7242
ltibia 39.9815
lfoot -44.0974 26.6327
ltoes 6.87792
